<svg width="447" height="54" viewBox="0 0 447 54" fill="none" xmlns="http://www.w3.org/2000/svg">
<path d="M19.793 53.8242C9.31641 53.8242 2.60156 49.6406 0.5625 44.0859C0.210938 43.1719 0 42.1875 0 41.2383C0 38.4258 1.93359 36.5625 4.67578 36.5625C6.85547 36.5625 8.29688 37.4062 9.5625 39.6562C11.2148 43.5234 15.1875 45.2812 20.0391 45.2812C25.7344 45.2812 29.6016 42.5391 29.6016 38.8125C29.6016 35.4727 27.2109 33.5742 20.8477 32.2734L15.4688 31.2188C5.34375 29.2148 0.386719 24.3633 0.386719 16.8047C0.386719 7.52344 8.47266 1.37109 19.7578 1.37109C29.0391 1.37109 36.0352 5.27344 38.2852 11.8828C38.5312 12.5859 38.6719 13.3242 38.6719 14.2383C38.6719 16.7695 36.8438 18.4922 34.1367 18.4922C31.7461 18.4922 30.2695 17.543 29.0742 15.3633C27.3867 11.5312 24.1172 9.94922 19.7578 9.94922C14.5195 9.94922 11.0391 12.4102 11.0391 16.1367C11.0391 19.2656 13.4648 21.1992 19.4766 22.3945L24.8203 23.4844C35.5781 25.6289 40.2188 29.9531 40.2188 37.6523C40.2188 47.5664 32.4492 53.8242 19.793 53.8242Z" fill="#333333"/>
<path d="M51.2227 53.7188C48.2344 53.7188 46.0898 51.8906 46.0898 48.375V6.85547C46.0898 3.33984 48.2344 1.47656 51.2227 1.47656C54.2461 1.47656 56.3555 3.33984 56.3555 6.85547V30.2344H56.4961L70.1367 16.5586C71.5078 15.1172 72.668 14.5195 74.2148 14.5195C76.8516 14.5195 78.7852 16.4531 78.7852 18.9844C78.7852 20.5312 78.3281 21.4805 76.8516 22.8516L67.2539 31.9219L77.7656 45.3164C78.8906 46.8281 79.207 47.7422 79.207 49.0781C79.207 51.8203 77.2031 53.7188 74.3203 53.7188C72.1406 53.7188 70.9102 52.9453 69.293 50.5195L59.625 37.7227L56.3555 40.7461V48.375C56.3555 51.8906 54.2461 53.7188 51.2227 53.7188Z" fill="#333333"/>
<path d="M89.8945 53.7188C86.6953 53.7188 84.7617 51.7148 84.7617 48.375V33.8594C84.7617 30.5195 86.6953 28.4805 89.8945 28.4805C93.0586 28.4805 95.0273 30.5195 95.0273 33.8594V48.375C95.0273 51.7148 93.0586 53.7188 89.8945 53.7188Z" fill="#1F6FEB"/>
<path d="M107.262 53.7188C104.273 53.7188 102.129 51.8906 102.129 48.375V19.8984C102.129 16.3828 104.273 14.5195 107.262 14.5195C110.285 14.5195 112.395 16.3828 112.395 19.8984V48.375C112.395 51.8906 110.285 53.7188 107.262 53.7188Z" fill="#7ED321"/>
<path d="M124.699 53.7188C121.711 53.7188 119.566 51.8906 119.566 48.375V6.85547C119.566 3.33984 121.711 1.47656 124.699 1.47656C127.723 1.47656 129.832 3.33984 129.832 6.85547V48.375C129.832 51.8906 127.723 53.7188 124.699 53.7188Z" fill="#FF6B6B"/>
<path d="M160.242 53.8242C145.195 53.8242 136.055 43.9805 136.055 27.5977C136.055 11.25 145.371 1.37109 159.961 1.37109C169.453 1.37109 176.801 5.58984 180.281 12.9023C180.984 14.2383 181.336 15.6094 181.336 16.875C181.336 19.6523 179.473 21.4453 176.66 21.4453C174.27 21.4453 172.758 20.3906 171.598 17.9297C169.277 12.7617 165.129 10.1602 160.066 10.1602C152.051 10.1602 146.883 16.875 146.883 27.5625C146.883 38.3906 151.98 45.0703 160.102 45.0703C165.445 45.0703 169.453 42.6445 171.738 37.5469C172.828 35.1562 174.164 34.207 176.414 34.207C179.402 34.207 181.371 36.1055 181.371 38.918C181.371 40.1133 181.09 41.2383 180.562 42.4688C177.398 49.5 169.84 53.8242 160.242 53.8242Z" fill="#333333"/>
<path d="M193.465 53.7188C190.477 53.7188 188.332 51.8906 188.332 48.375V6.75C188.332 3.44531 190.23 1.47656 193.395 1.47656C196.559 1.47656 198.422 3.44531 198.422 6.75V22.0078H198.633C200.637 17.2617 204.75 14.5898 210.48 14.5898C218.848 14.5898 223.629 20.0039 223.629 28.7227V48.375C223.629 51.8906 221.52 53.7188 218.496 53.7188C215.508 53.7188 213.363 51.8906 213.363 48.375V30.9023C213.363 26.0508 210.973 23.0977 206.297 23.0977C201.445 23.0977 198.598 26.5078 198.598 31.4648V48.375C198.598 51.8906 196.488 53.7188 193.465 53.7188Z" fill="#333333"/>
<path d="M235.336 53.7188C232.242 53.7188 230.203 51.7852 230.203 48.375V19.6875C230.203 16.418 232.207 14.5195 235.16 14.5195C238.043 14.5195 240.012 16.418 240.012 19.6875V22.1484H240.223C241.207 17.4727 244.301 14.6953 248.062 14.6953C249.434 14.6953 250.523 15.0117 251.262 15.6445C252.246 16.418 252.738 17.6836 252.738 19.4414C252.738 21.0586 252.246 22.2891 251.262 23.1328C250.277 23.9766 248.801 24.4336 246.797 24.4688C242.121 24.5391 240.469 27.1758 240.469 31.6406V48.375C240.469 51.7852 238.465 53.7188 235.336 53.7188Z" fill="#333333"/>
<path d="M272.461 53.7891C261.07 53.7891 253.793 46.4766 253.793 34.1016C253.793 21.9023 261.176 14.4844 272.461 14.4844C283.746 14.4844 291.129 21.8672 291.129 34.1016C291.129 46.5117 283.852 53.7891 272.461 53.7891ZM272.461 45.9492C277.488 45.9492 280.688 41.6953 280.688 34.1367C280.688 26.6484 277.453 22.3242 272.461 22.3242C267.469 22.3242 264.199 26.6484 264.199 34.1367C264.199 41.6953 267.398 45.9492 272.461 45.9492Z" fill="#333333"/>
<path d="M301.57 53.7188C298.582 53.7188 296.438 51.8906 296.438 48.375V19.6875C296.438 16.4883 298.301 14.5195 301.395 14.5195C304.488 14.5195 306.527 16.4883 306.527 19.7227V21.832H306.738C308.742 17.1562 312.539 14.5898 318.34 14.5898C326.707 14.5898 331.418 19.8633 331.418 28.6875V48.375C331.418 51.8906 329.273 53.7188 326.285 53.7188C323.262 53.7188 321.152 51.8906 321.152 48.375V30.832C321.152 25.9102 318.832 23.0977 314.227 23.0977C309.621 23.0977 306.703 26.4727 306.703 31.3594V48.375C306.703 51.8906 304.594 53.7188 301.57 53.7188Z" fill="#333333"/>
<path d="M343.23 10.6172C340.137 10.6172 337.746 8.26172 337.746 5.30859C337.746 2.32031 340.137 0 343.23 0C346.324 0 348.715 2.32031 348.715 5.30859C348.715 8.26172 346.324 10.6172 343.23 10.6172ZM343.23 53.7188C340.031 53.7188 338.098 51.7148 338.098 48.375V19.8984C338.098 16.5586 340.031 14.5195 343.23 14.5195C346.395 14.5195 348.363 16.5586 348.363 19.8984V48.375C348.363 51.7148 346.395 53.7188 343.23 53.7188Z" fill="#333333"/>
<path d="M372.41 53.7891C361.055 53.7891 353.848 46.3359 353.848 34.1367C353.848 22.0781 361.02 14.4844 372.34 14.4844C379.898 14.4844 386.191 18.1406 388.23 23.4844C388.582 24.3633 388.793 25.2773 388.793 26.0156C388.793 28.5469 386.824 30.0234 384.398 30.0234C382.359 30.0234 381.129 29.2148 380.074 27.3516C378.211 24.0469 375.926 22.5352 372.656 22.5352C367.453 22.5352 364.254 26.8242 364.254 34.1016C364.254 41.5195 367.453 45.7383 372.586 45.7383C376.172 45.7383 378.387 43.9805 379.969 41.3086C381.34 39.1641 382.465 38.2852 384.645 38.2852C387.035 38.2852 388.969 39.8672 388.969 42.3984C388.969 43.207 388.758 44.0508 388.301 45.0703C386.051 50.2031 379.617 53.7891 372.41 53.7891Z" fill="#333333"/>
<path d="M399.832 53.7188C396.844 53.7188 394.699 51.8906 394.699 48.375V6.85547C394.699 3.33984 396.844 1.47656 399.832 1.47656C402.855 1.47656 404.965 3.33984 404.965 6.85547V48.375C404.965 51.8906 402.855 53.7188 399.832 53.7188Z" fill="#333333"/>
<path d="M429.223 53.7891C417.445 53.7891 410.52 46.5117 410.52 34.3125C410.52 22.1836 417.586 14.4844 428.73 14.4844C439.418 14.4844 446.59 21.7969 446.59 32.0273C446.59 34.875 444.973 36.4922 442.125 36.4922H420.609V36.9492C420.609 42.5391 423.984 46.1953 429.188 46.1953C432.949 46.1953 435.41 44.9297 438.188 41.6602C439.277 40.5352 440.191 40.1484 441.527 40.1484C443.742 40.1484 445.535 41.5547 445.535 43.9102C445.535 44.7188 445.289 45.5625 444.832 46.4062C442.336 51.0469 436.5 53.7891 429.223 53.7891ZM420.715 30.1992H436.711C436.5 25.2773 433.336 22.0781 428.836 22.0781C424.336 22.0781 421.066 25.3828 420.715 30.1992Z" fill="#333333"/>
<path d="M84.5273 20.7891C84.5273 23.7422 86.918 26.0977 90.0117 26.0977C93.1055 26.0977 95.4961 23.7422 95.4961 20.7891C95.4961 17.8008 93.1055 15.4805 90.0117 15.4805C86.918 15.4805 84.5273 17.8008 84.5273 20.7891Z" fill="#333333"/>
</svg>
